<?xml version="1.0" standalone="no"?>
<!DOCTYPE svg PUBLIC "-//W3C//DTD SVG 20010904//EN"
 "http://www.w3.org/TR/2001/REC-SVG-20010904/DTD/svg10.dtd">
<svg version="1.0" xmlns="http://www.w3.org/2000/svg"
 width="450.000000pt" height="300.000000pt" viewBox="0 0 450.000000 300.000000"
 preserveAspectRatio="xMidYMid meet">

<g transform="translate(0.000000,300.000000) scale(0.100000,-0.100000)"
fill="#000000" stroke="none">
<path d="M954 2713 l-101 -4 -42 -112 c-22 -62 -41 -116 -41 -122 0 -5 -26
-23 -58 -40 -76 -40 -199 -163 -245 -246 -74 -133 -108 -297 -91 -434 l8 -70
6 110 c7 127 31 210 88 304 49 80 132 174 174 195 46 23 71 39 83 53 9 10 69
39 120 58 50 18 98 22 123 10 21 -10 55 -11 144 -4 65 5 121 10 125 11 5 0 15
-1 23 -4 8 -3 33 -11 55 -17 22 -6 74 -30 116 -55 193 -113 300 -321 285 -553
l-5 -93 27 -6 c122 -27 212 -93 252 -185 31 -74 26 -200 -12 -280 -33 -72 -95
-134 -164 -166 -141 -64 -342 -5 -440 131 l-21 29 -55 -21 c-338 -127 -781 80
-895 417 -12 38 -24 59 -27 51 -3 -8 -24 -139 -46 -290 -21 -151 -47 -322 -56
-380 -11 -75 -14 -134 -9 -205 6 -92 10 -106 46 -175 44 -82 61 -105 52 -71
-9 34 3 24 31 -24 13 -25 19 -43 13 -39 -7 3 0 -5 14 -18 14 -13 43 -44 65
-68 36 -40 37 -43 14 -37 l-25 6 24 -19 c12 -11 27 -17 32 -14 6 3 21 -1 34
-10 13 -9 32 -18 42 -19 10 -2 45 -12 77 -22 72 -21 241 -17 322 9 146 46 343
246 450 458 22 44 27 48 62 48 20 0 388 -11 817 -26 685 -23 782 -29 793 -43
128 -162 264 -284 385 -344 102 -51 209 -73 292 -59 246 41 398 267 412 612 4
109 1 149 -26 308 -17 100 -37 211 -45 247 -7 35 -12 66 -10 68 13 13 35 205
35 312 1 235 -55 392 -185 520 -39 39 -92 81 -117 94 -47 25 -47 25 -76 125
l-30 101 -57 0 c-31 -1 -156 -2 -278 -3 l-223 -2 -38 -105 c-21 -57 -36 -108
-33 -114 4 -5 -6 -8 -21 -5 -142 19 -211 25 -381 35 -287 17 -868 -1 -1203
-37 l-55 -6 -35 119 -35 118 -179 0 c-99 1 -225 -1 -281 -2z m2721 -227 c186
-64 334 -197 412 -374 31 -71 56 -195 48 -243 -4 -20 -6 -55 -7 -79 -1 -56
-28 -151 -63 -217 -15 -29 -29 -53 -32 -53 -2 0 -1 5 2 10 3 6 2 10 -4 10 -6
0 -15 -9 -21 -20 -6 -11 -8 -20 -5 -20 20 0 -81 -122 -118 -142 -15 -8 -18 -7
-12 4 4 7 -10 -3 -31 -24 -44 -41 -130 -79 -221 -98 -61 -12 -261 -10 -293 4
-11 4 -20 -7 -35 -41 -24 -60 -100 -138 -163 -166 -37 -17 -67 -21 -137 -22
-82 0 -96 3 -157 33 -83 41 -143 98 -175 169 -35 76 -30 184 12 261 27 50 98
126 139 149 17 10 17 13 1 88 -76 338 186 717 550 795 76 17 223 5 310 -24z
m-2535 -45 c0 -4 -24 -11 -52 -15 -76 -9 -108 -7 -108 5 0 5 3 8 8 6 4 -3 16
-1 27 4 27 10 125 11 125 0z m1468 -420 l32 -28 -24 -55 -25 -56 -58 -6 c-32
-4 -66 -9 -75 -12 -17 -5 -18 -3 -33 134 l-6 52 78 0 c71 -1 81 -3 111 -29z
m-505 -48 c12 -123 19 -113 -75 -113 l-83 1 -27 40 c-35 49 -35 59 1 93 27 25
47 31 167 45 7 0 14 -26 17 -66z m-1709 -1059 c3 -8 2 -12 -4 -9 -6 3 -10 10
-10 16 0 14 7 11 14 -7z m-86 -29 c-3 -3 -9 2 -12 12 -6 14 -5 15 5 6 7 -7 10
-15 7 -18z m115 -19 c3 3 11 -14 17 -38 16 -59 35 -92 95 -168 28 -36 55 -71
59 -78 17 -29 -32 7 -69 50 -23 28 -32 34 -25 18 22 -44 -7 -8 -60 75 -52 82
-65 114 -30 74 l21 -24 -21 42 c-24 50 -27 71 -7 54 8 -6 16 -8 20 -5z m-112
-53 c-9 -16 -10 -14 -11 12 0 21 3 26 11 18 8 -8 8 -16 0 -30z m62 -35 c9 -10
17 -25 17 -33 0 -9 18 -35 40 -58 35 -35 38 -43 26 -53 -11 -7 -12 -14 -5 -21
6 -6 11 -24 13 -40 1 -21 19 -46 59 -86 31 -31 55 -57 52 -57 -14 0 -64 29
-86 50 -15 14 -41 36 -59 49 -27 21 -30 25 -16 33 9 5 14 13 11 18 -3 5 -8 26
-11 47 -2 20 -8 40 -12 43 -4 3 -14 19 -21 35 -8 18 -16 25 -18 17 -4 -10 -8
-10 -19 -1 -19 15 -18 40 1 33 19 -8 19 8 0 49 -8 18 -10 23 -3 13 7 -11 21
-28 31 -38z m126 -48 c11 -24 11 -24 -3 -6 -9 11 -16 24 -16 30 0 12 5 7 19
-24z m-184 -30 c8 -16 15 -33 15 -37 -1 -14 -40 39 -40 53 0 22 8 17 25 -16z
m295 -172 c0 -12 -8 -10 -35 8 -36 23 -31 39 5 17 17 -9 30 -21 30 -25z m260
-20 c0 -5 -10 -6 -22 -3 -36 11 -41 22 -8 17 16 -2 30 -9 30 -14z m-304 -13
c18 -15 18 -15 -5 -13 -14 2 -26 9 -29 16 -5 17 10 15 34 -3z m347 8 c-7 -2
-19 -2 -25 0 -7 3 -2 5 12 5 14 0 19 -2 13 -5z m-172 -30 c13 -16 12 -17 -3
-4 -10 7 -18 15 -18 17 0 8 8 3 21 -13z m174 -2 c-6 -5 -28 -11 -50 -15 -37
-6 -39 -5 -21 9 21 16 87 22 71 6z m-277 -29 c2 -7 -6 -12 -17 -12 -21 0 -27
11 -14 24 9 9 26 2 31 -12z m32 -42 c8 -5 11 -10 5 -10 -5 0 -17 5 -25 10 -8
5 -10 10 -5 10 6 0 17 -5 25 -10z m295 0 c-45 -11 -123 -11 -130 0 -4 6 24 10
77 9 59 -1 75 -4 53 -9z m-118 -37 c40 -3 76 -10 79 -15 3 -4 -21 -6 -53 -3
-95 10 -122 15 -129 27 -5 8 -1 9 11 4 10 -3 51 -9 92 -13z"/>
<path d="M3437 2343 l-109 -4 7 -113 7 -113 -68 -6 c-38 -4 -89 -7 -113 -7
l-44 0 6 -67 c4 -38 7 -114 7 -169 l0 -102 108 6 109 5 7 -114 c3 -62 8 -115
11 -117 2 -2 66 4 142 14 l138 19 0 105 0 105 107 5 c58 3 109 7 111 10 4 4
-29 325 -33 325 0 0 -45 -1 -100 -3 l-100 -3 0 115 0 116 -42 -2 c-24 -1 -92
-4 -151 -5z m122 -39 c60 -50 49 -144 -22 -177 -69 -33 -157 16 -157 88 0 47
14 71 53 95 44 28 89 25 126 -6z m219 -250 c76 -53 60 -159 -29 -193 -75 -28
-168 59 -140 131 5 14 24 37 41 51 37 31 93 36 128 11z m-415 -34 c61 -68 13
-180 -78 -180 -59 0 -115 55 -115 113 0 32 35 76 74 93 43 19 86 10 119 -26z
m190 -211 c31 -14 57 -59 57 -99 0 -47 -55 -100 -104 -100 -77 0 -122 47 -117
124 0 10 16 33 35 52 37 37 82 45 129 23z"/>
<path d="M4042 1676 c-4 -16 -14 -32 -22 -34 -9 -3 -11 1 -7 11 3 8 3 17 0 20
-5 5 -73 -89 -73 -101 0 -3 -19 -30 -42 -61 -23 -31 -35 -50 -26 -44 8 7 39
47 69 89 53 73 79 81 43 12 -10 -18 -17 -36 -16 -40 1 -5 -2 -9 -8 -9 -5 -1
-14 -2 -19 -3 -17 -2 -25 -16 -9 -16 18 0 72 40 64 47 -3 3 5 14 17 25 12 11
16 16 8 12 -9 -4 -12 -2 -9 7 3 8 10 13 15 12 5 -1 10 8 10 20 1 12 8 26 16
32 8 5 19 19 25 30 9 18 7 21 -9 21 -13 0 -22 -10 -27 -30z"/>
<path d="M2925 1530 c-136 -31 -195 -165 -115 -262 80 -97 218 -91 288 12 32
46 28 139 -7 188 -36 51 -104 77 -166 62z"/>
<path d="M3655 1379 c-4 -6 -5 -12 -2 -15 2 -3 7 2 10 11 7 17 1 20 -8 4z"/>
<path d="M435 530 c3 -5 8 -10 11 -10 2 0 4 5 4 10 0 6 -5 10 -11 10 -5 0 -7
-4 -4 -10z"/>
<path d="M928 2393 c6 -2 18 -2 25 0 6 3 1 5 -13 5 -14 0 -19 -2 -12 -5z"/>
<path d="M1035 2370 c-3 -5 -18 -11 -33 -11 -20 -1 -22 -3 -7 -6 11 -2 38 3
60 11 35 13 37 15 13 15 -15 1 -30 -3 -33 -9z"/>
<path d="M1250 2370 c-16 -6 -6 -7 30 -3 30 3 57 7 59 9 8 7 -64 2 -89 -6z"/>
<path d="M1261 2345 c-24 -8 -29 -14 -18 -18 21 -8 89 12 82 24 -8 11 -20 10
-64 -6z"/>
<path d="M1165 2224 c-5 -1 -81 -10 -167 -20 l-158 -17 0 -98 0 -99 -54 0
c-29 0 -81 -3 -115 -6 l-61 -7 0 -131 c0 -72 4 -137 9 -145 7 -10 33 -12 118
-10 l110 4 7 -104 c3 -57 7 -106 9 -107 1 -2 78 0 170 3 l167 6 0 107 0 107
68 6 c37 4 91 7 121 7 l54 0 -6 68 c-4 37 -9 103 -13 146 l-7 79 -113 -7 c-90
-5 -114 -4 -115 6 -1 7 -4 58 -8 114 -3 59 -10 100 -16 98z m-45 -126 l0 -83
-48 -31 -48 -31 -36 26 c-37 27 -48 60 -48 146 l0 33 83 10 c45 5 85 10 90 11
4 0 7 -36 7 -81z m264 -146 c2 -4 7 -44 11 -90 l8 -82 -84 0 -84 1 -34 46 -33
45 35 35 c34 35 47 39 164 52 6 0 14 -2 17 -7z m-504 -64 c16 -22 30 -47 30
-53 0 -7 -15 -26 -34 -42 -27 -24 -46 -31 -101 -37 -37 -4 -69 -6 -70 -4 -6 6
-22 163 -18 171 2 4 40 7 84 7 l79 0 30 -42z m221 -163 c35 -25 37 -30 44 -97
4 -50 3 -73 -5 -78 -12 -8 -160 -24 -165 -18 -1 2 -5 35 -9 75 l-7 72 48 35
c26 20 50 36 52 36 3 0 21 -11 42 -25z"/>
<path d="M1612 1519 c-49 -32 -82 -95 -82 -157 0 -44 5 -57 32 -88 110 -125
310 -58 310 104 0 55 -39 115 -92 143 -48 26 -126 25 -168 -2z"/>
<path d="M316 570 c18 -68 90 -167 138 -192 21 -11 21 -11 2 11 -11 11 -15 21
-11 21 5 0 -6 16 -25 35 -18 19 -37 32 -42 29 -4 -3 -8 0 -8 6 0 6 -14 34 -31
63 -17 29 -27 41 -23 27z m84 -121 c0 -6 -4 -7 -10 -4 -5 3 -10 11 -10 16 0 6
5 7 10 4 6 -3 10 -11 10 -16z"/>
</g>
</svg>
