<?xml version="1.0" standalone="no"?>
<!DOCTYPE svg PUBLIC "-//W3C//DTD SVG 20010904//EN"
 "http://www.w3.org/TR/2001/REC-SVG-20010904/DTD/svg10.dtd">
<svg version="1.0" xmlns="http://www.w3.org/2000/svg"
 width="1080.000000pt" height="500.000000pt" viewBox="0 0 1080.000000 500.000000"
 preserveAspectRatio="xMidYMid meet">

<g transform="translate(0.000000,500.000000) scale(0.100000,-0.100000)"
fill="#000000" stroke="none">
<path d="M873 4583 l-91 -4 -36 -92 c-19 -51 -40 -106 -46 -122 -7 -21 -26
-39 -61 -58 -127 -72 -252 -228 -304 -378 -28 -80 -29 -93 -31 -269 -2 -183
-22 -354 -90 -765 -11 -71 -15 -134 -11 -217 5 -105 8 -123 32 -165 15 -27 34
-60 42 -75 16 -30 36 -48 27 -24 -11 28 5 17 22 -15 11 -23 12 -29 2 -23 -16
9 64 -80 106 -119 30 -28 31 -28 6 -23 l-25 5 24 -19 c12 -11 27 -17 32 -14 6
3 20 -1 32 -9 73 -48 269 -71 389 -46 172 36 359 212 500 469 23 42 27 45 71
48 38 3 514 -13 1410 -45 l178 -6 64 -77 c205 -249 452 -379 642 -340 213 44
348 223 392 517 20 134 11 235 -53 584 -24 128 -24 134 -8 198 24 97 23 392
-1 481 -45 161 -146 300 -269 369 l-57 32 -26 87 c-15 48 -29 96 -32 106 -5
18 -13 18 -117 13 -61 -4 -186 -7 -277 -7 l-167 0 -42 -115 c-38 -102 -45
-114 -64 -110 -279 57 -977 57 -1563 0 l-61 -6 -27 88 c-14 48 -31 103 -36
121 l-11 32 -186 -2 c-103 -1 -228 -4 -279 -5z m2662 -208 c240 -51 449 -248
509 -481 20 -78 21 -197 2 -249 -6 -16 -6 -17 3 -5 17 24 13 -3 -13 -83 -26
-79 -75 -181 -76 -158 0 11 -3 11 -15 1 -8 -7 -13 -16 -10 -20 15 -24 -113
-164 -141 -153 -7 2 -20 -6 -29 -20 -18 -29 -103 -68 -195 -92 -49 -13 -93
-16 -180 -12 -63 2 -122 7 -131 11 -11 5 -21 -6 -39 -43 -31 -66 -92 -128
-160 -160 -46 -22 -69 -26 -140 -26 -75 0 -93 4 -151 31 -86 41 -142 92 -176
162 -73 148 3 342 165 428 1 1 -5 28 -13 60 -101 377 248 819 650 823 39 0
101 -6 140 -14z m-2471 -64 c6 -9 -76 -21 -129 -20 l-30 1 30 13 c33 16 121
20 129 6z m-168 -25 c23 -11 53 -12 149 -5 66 5 126 11 133 14 6 2 12 0 12 -5
0 -6 12 -10 28 -10 15 0 65 -19 111 -42 139 -70 254 -203 300 -348 19 -63 30
-173 22 -247 l-7 -72 51 -12 c197 -46 297 -216 239 -409 -21 -70 -52 -117
-109 -168 -152 -134 -411 -82 -531 106 -2 2 -27 -5 -57 -16 -276 -104 -653 20
-824 271 -158 232 -124 526 87 751 32 33 79 72 106 86 26 14 57 35 70 48 13
12 30 22 39 22 8 0 23 4 33 9 37 19 68 30 92 34 14 2 25 5 26 6 0 0 14 -5 30
-13z m1639 -396 l28 -29 -17 -43 c-9 -24 -20 -48 -24 -54 -10 -16 -153 -34
-157 -20 -2 6 -6 48 -10 94 l-6 82 78 0 c75 0 81 -2 108 -30z m-511 -7 c3 -16
8 -56 11 -90 l7 -63 -84 0 -85 0 -33 46 -33 46 36 35 c34 35 45 38 164 52 6 0
14 -11 17 -26z m-1706 -1098 c-3 -3 -9 2 -12 12 -6 14 -5 15 5 6 7 -7 10 -15
7 -18z m-76 -40 c9 -20 9 -20 -6 -1 -9 11 -16 27 -15 35 0 14 1 14 6 1 3 -8
10 -24 15 -35z m119 -22 c5 -13 11 -34 13 -47 5 -26 34 -86 42 -86 2 0 0 10
-6 23 -11 21 -10 21 4 3 9 -11 16 -27 16 -35 0 -9 23 -42 50 -75 28 -32 48
-61 44 -65 -3 -3 -31 21 -62 54 -31 33 -50 52 -43 43 7 -10 11 -22 9 -29 -2
-6 -23 21 -46 60 -24 40 -40 76 -37 80 2 5 -2 25 -10 45 -19 45 -19 53 1 53 9
0 20 -11 25 -24z m-124 -35 c-16 -10 -21 -2 -13 19 6 15 9 15 16 3 6 -9 5 -17
-3 -22z m83 -82 c0 -8 18 -31 40 -52 41 -39 50 -56 28 -51 -8 1 -12 -6 -10
-18 2 -11 6 -35 9 -52 3 -21 11 -33 21 -33 8 0 12 -3 9 -7 -4 -3 3 -13 14 -21
15 -11 23 -11 28 -3 5 8 13 7 27 -4 18 -14 18 -14 -6 -15 l-25 -1 28 -24 c15
-14 26 -25 24 -25 -14 0 -66 29 -91 50 -67 57 -100 90 -85 84 19 -6 35 11 19
21 -5 3 -10 24 -10 46 0 21 -4 39 -10 39 -5 0 -10 7 -10 15 0 8 -5 15 -11 15
-5 0 -8 4 -4 9 3 5 1 12 -5 16 -5 3 -10 0 -10 -7 -1 -7 -9 -3 -21 11 -22 26
-18 41 6 21 20 -17 20 5 0 40 -25 44 -16 45 15 2 17 -23 30 -48 30 -56z m18
48 c-4 -3 -12 5 -18 18 -12 22 -12 22 6 6 10 -10 15 -20 12 -24z m-79 -129 c0
-5 -8 1 -19 15 -11 14 -19 34 -19 45 0 15 5 11 19 -15 11 -19 19 -39 19 -45z
m271 -119 c7 -9 8 -16 3 -16 -14 0 -53 30 -53 41 0 12 32 -4 50 -25z m265 -26
c4 -7 -3 -8 -22 -4 -38 9 -42 14 -10 14 14 0 29 -5 32 -10z m-130 -30 c3 -5 1
-10 -4 -10 -6 0 -11 5 -11 10 0 6 2 10 4 10 3 0 8 -4 11 -10z m170 -9 c-6 -5
-26 -12 -45 -16 -31 -7 -33 -6 -21 9 7 9 27 16 44 16 19 0 27 -4 22 -9z m-275
-27 c0 -8 -7 -14 -15 -14 -17 0 -18 2 -9 24 7 18 24 12 24 -10z m40 -46 c10
-6 7 -7 -10 -2 -14 3 -32 11 -40 16 -10 6 -7 7 10 2 14 -3 32 -11 40 -16z
m295 2 c-45 -11 -133 -11 -140 0 -4 6 25 10 82 9 62 -1 79 -4 58 -9z m-46 -46
c32 -10 1 -12 -76 -5 -46 4 -87 11 -92 16 -10 10 131 0 168 -11z m-62 -40 c-3
-3 -12 -4 -19 -1 -8 3 -5 6 6 6 11 1 17 -2 13 -5z"/>
<path d="M3367 4213 l-109 -4 4 -114 3 -114 -107 -7 -108 -7 0 -71 c0 -39 3
-114 6 -167 l7 -96 108 5 109 5 0 -117 c0 -136 -20 -124 169 -98 l123 18 2
104 1 105 105 5 c125 6 118 -9 96 184 -9 74 -16 139 -16 143 0 4 -45 6 -100 5
l-100 -4 0 116 0 116 -42 -2 c-24 -1 -92 -4 -151 -5z m116 -34 c15 -11 32 -37
38 -59 10 -33 9 -43 -7 -72 -11 -18 -37 -41 -57 -52 -34 -16 -42 -17 -75 -4
-48 18 -85 72 -78 113 3 17 22 45 41 63 42 39 97 44 138 11z m231 -260 c66
-52 43 -166 -38 -188 -92 -24 -173 67 -132 148 31 59 119 80 170 40z m-454 -4
c61 -31 78 -112 34 -164 -30 -36 -81 -49 -125 -31 -88 37 -92 146 -8 191 42
22 62 23 99 4z m233 -245 c83 -65 38 -190 -68 -190 -77 0 -132 75 -104 141 26
63 120 90 172 49z"/>
<path d="M3996 3603 c-6 -14 -5 -15 5 -6 7 7 10 15 7 18 -3 3 -9 -2 -12 -12z"/>
<path d="M3974 3560 c-8 -17 -11 -26 -13 -40 -2 -18 -20 -10 -23 10 -2 15 -11
7 -38 -35 -19 -31 -48 -74 -65 -97 -50 -69 -59 -85 -26 -48 17 19 47 59 68 88
21 30 40 49 45 44 11 -11 -30 -84 -43 -76 -5 3 -6 -3 -2 -12 4 -11 3 -15 -5
-10 -6 3 -13 2 -17 -4 -3 -5 1 -10 9 -10 20 0 59 38 51 49 -2 5 5 11 16 14 14
4 20 11 16 21 -3 8 -1 18 5 22 7 5 8 2 3 -6 -5 -8 -4 -11 3 -6 6 4 9 13 6 21
-3 7 3 22 14 33 11 11 25 30 31 41 9 17 8 20 -9 18 -11 -1 -23 -8 -26 -17z"/>
<path d="M2837 3395 c-112 -29 -168 -142 -116 -234 61 -109 221 -122 296 -24
72 94 14 246 -102 266 -16 3 -52 -1 -78 -8z"/>
<path d="M3583 3255 c-3 -9 -3 -18 -1 -21 3 -3 8 4 11 16 6 23 -1 27 -10 5z"/>
<path d="M3639 3233 c-13 -16 -12 -17 4 -4 16 13 21 21 13 21 -2 0 -10 -8 -17
-17z"/>
<path d="M3715 3208 l-40 -43 43 40 c39 36 47 45 39 45 -2 0 -21 -19 -42 -42z"/>
<path d="M858 4263 c6 -2 18 -2 25 0 6 3 1 5 -13 5 -14 0 -19 -2 -12 -5z"/>
<path d="M955 4241 c-6 -5 -19 -11 -30 -14 -16 -4 -15 -5 5 -5 14 0 41 6 60
13 l35 13 -30 1 c-17 1 -35 -3 -40 -8z"/>
<path d="M1175 4240 c-42 -11 -1 -11 50 -1 34 7 35 9 10 9 -16 0 -43 -4 -60
-8z"/>
<path d="M1194 4215 c-12 -8 -23 -13 -25 -12 -3 1 -2 -1 1 -5 8 -11 82 11 75
23 -9 13 -27 11 -51 -6z"/>
<path d="M678 4213 c7 -3 16 -2 19 1 4 3 -2 6 -13 5 -11 0 -14 -3 -6 -6z"/>
<path d="M1095 4094 c-5 -1 -81 -10 -167 -19 l-158 -18 0 -98 0 -99 -54 0
c-29 0 -81 -3 -115 -6 l-61 -7 0 -144 0 -144 118 2 117 3 3 -109 3 -108 82 6
c45 4 124 7 176 7 l93 0 -4 109 -3 108 74 7 c41 3 96 6 123 6 49 0 49 0 44 28
-3 15 -8 80 -12 146 l-7 118 -116 -3 -116 -4 -5 111 c-3 66 -9 110 -15 108z
m-47 -134 l-3 -74 -47 -34 -47 -33 -36 28 c-35 28 -37 34 -50 134 l-6 47 88 9
c48 5 92 6 96 2 4 -3 7 -39 5 -79z m266 -157 c3 -16 8 -56 11 -90 l7 -63 -86
0 -85 0 -31 45 -31 45 26 35 c22 27 35 35 73 40 26 4 54 8 62 9 39 9 49 5 54
-21z m-505 -48 l33 -46 -27 -34 c-27 -37 -36 -40 -127 -50 l-57 -6 -5 33 c-3
18 -8 59 -11 91 l-6 57 84 0 84 0 32 -45z m223 -167 c33 -30 37 -39 42 -100 7
-77 13 -73 -106 -84 l-78 -6 0 80 0 80 48 31 c26 17 50 31 53 31 3 0 22 -15
41 -32z"/>
<path d="M1544 3391 c-120 -73 -120 -237 0 -292 117 -53 242 11 254 130 9 97
-72 181 -174 181 -30 0 -61 -7 -80 -19z"/>
<path d="M4994 4583 l-101 -4 -42 -112 c-22 -62 -41 -116 -41 -122 0 -5 -26
-23 -58 -40 -76 -40 -199 -163 -245 -246 -74 -133 -108 -297 -91 -434 l8 -70
6 110 c7 127 31 210 88 304 49 80 132 174 174 195 46 23 71 39 83 53 9 10 69
39 120 58 50 18 98 22 123 10 21 -10 55 -11 144 -4 65 5 121 10 125 11 5 0 15
-1 23 -4 8 -3 33 -11 55 -17 22 -6 74 -30 116 -55 193 -113 300 -321 285 -553
l-5 -93 27 -6 c122 -27 212 -93 252 -185 31 -74 26 -200 -12 -280 -33 -72 -95
-134 -164 -166 -141 -64 -342 -5 -440 131 l-21 29 -55 -21 c-338 -127 -781 80
-895 417 -12 38 -24 59 -27 51 -3 -8 -24 -139 -46 -290 -21 -151 -47 -322 -56
-380 -11 -75 -14 -134 -9 -205 6 -92 10 -106 46 -175 44 -82 61 -105 52 -71
-9 34 3 24 31 -24 13 -25 19 -43 13 -39 -7 3 0 -5 14 -18 14 -13 43 -44 65
-68 36 -40 37 -43 14 -37 l-25 6 24 -19 c12 -11 27 -17 32 -14 6 3 21 -1 34
-10 13 -9 32 -18 42 -19 10 -2 45 -12 77 -22 72 -21 241 -17 322 9 146 46 343
246 450 458 22 44 27 48 62 48 20 0 388 -11 817 -26 685 -23 782 -29 793 -43
128 -162 264 -284 385 -344 102 -51 209 -73 292 -59 246 41 398 267 412 612 4
109 1 149 -26 308 -17 100 -37 211 -45 247 -7 35 -12 66 -10 68 13 13 35 205
35 312 1 235 -55 392 -185 520 -39 39 -92 81 -117 94 -47 25 -47 25 -76 125
l-30 101 -57 0 c-31 -1 -156 -2 -278 -3 l-223 -2 -38 -105 c-21 -57 -36 -108
-33 -114 4 -5 -6 -8 -21 -5 -142 19 -211 25 -381 35 -287 17 -868 -1 -1203
-37 l-55 -6 -35 119 -35 118 -179 0 c-99 1 -225 -1 -281 -2z m2721 -227 c186
-64 334 -197 412 -374 31 -71 56 -195 48 -243 -4 -20 -6 -55 -7 -79 -1 -56
-28 -151 -63 -217 -15 -29 -29 -53 -32 -53 -2 0 -1 5 2 10 3 6 2 10 -4 10 -6
0 -15 -9 -21 -20 -6 -11 -8 -20 -5 -20 20 0 -81 -122 -118 -142 -15 -8 -18 -7
-12 4 4 7 -10 -3 -31 -24 -44 -41 -130 -79 -221 -98 -61 -12 -261 -10 -293 4
-11 4 -20 -7 -35 -41 -24 -60 -100 -138 -163 -166 -37 -17 -67 -21 -137 -22
-82 0 -96 3 -157 33 -83 41 -143 98 -175 169 -35 76 -30 184 12 261 27 50 98
126 139 149 17 10 17 13 1 88 -76 338 186 717 550 795 76 17 223 5 310 -24z
m-2535 -45 c0 -4 -24 -11 -52 -15 -76 -9 -108 -7 -108 5 0 5 3 8 8 6 4 -3 16
-1 27 4 27 10 125 11 125 0z m1468 -420 l32 -28 -24 -55 -25 -56 -58 -6 c-32
-4 -66 -9 -75 -12 -17 -5 -18 -3 -33 134 l-6 52 78 0 c71 -1 81 -3 111 -29z
m-505 -48 c12 -123 19 -113 -75 -113 l-83 1 -27 40 c-35 49 -35 59 1 93 27 25
47 31 167 45 7 0 14 -26 17 -66z m-1709 -1059 c3 -8 2 -12 -4 -9 -6 3 -10 10
-10 16 0 14 7 11 14 -7z m-86 -29 c-3 -3 -9 2 -12 12 -6 14 -5 15 5 6 7 -7 10
-15 7 -18z m115 -19 c3 3 11 -14 17 -38 16 -59 35 -92 95 -168 28 -36 55 -71
59 -78 17 -29 -32 7 -69 50 -23 28 -32 34 -25 18 22 -44 -7 -8 -60 75 -52 82
-65 114 -30 74 l21 -24 -21 42 c-24 50 -27 71 -7 54 8 -6 16 -8 20 -5z m-112
-53 c-9 -16 -10 -14 -11 12 0 21 3 26 11 18 8 -8 8 -16 0 -30z m62 -35 c9 -10
17 -25 17 -33 0 -9 18 -35 40 -58 35 -35 38 -43 26 -53 -11 -7 -12 -14 -5 -21
6 -6 11 -24 13 -40 1 -21 19 -46 59 -86 31 -31 55 -57 52 -57 -14 0 -64 29
-86 50 -15 14 -41 36 -59 49 -27 21 -30 25 -16 33 9 5 14 13 11 18 -3 5 -8 26
-11 47 -2 20 -8 40 -12 43 -4 3 -14 19 -21 35 -8 18 -16 25 -18 17 -4 -10 -8
-10 -19 -1 -19 15 -18 40 1 33 19 -8 19 8 0 49 -8 18 -10 23 -3 13 7 -11 21
-28 31 -38z m126 -48 c11 -24 11 -24 -3 -6 -9 11 -16 24 -16 30 0 12 5 7 19
-24z m-184 -30 c8 -16 15 -33 15 -37 -1 -14 -40 39 -40 53 0 22 8 17 25 -16z
m295 -172 c0 -12 -8 -10 -35 8 -36 23 -31 39 5 17 17 -9 30 -21 30 -25z m260
-20 c0 -5 -10 -6 -22 -3 -36 11 -41 22 -8 17 16 -2 30 -9 30 -14z m-304 -13
c18 -15 18 -15 -5 -13 -14 2 -26 9 -29 16 -5 17 10 15 34 -3z m347 8 c-7 -2
-19 -2 -25 0 -7 3 -2 5 12 5 14 0 19 -2 13 -5z m-172 -30 c13 -16 12 -17 -3
-4 -17 13 -22 21 -14 21 2 0 10 -8 17 -17z m174 -2 c-6 -5 -28 -11 -50 -15
-37 -6 -39 -5 -21 9 21 16 87 22 71 6z m-277 -29 c2 -7 -6 -12 -17 -12 -21 0
-27 11 -14 24 9 9 26 2 31 -12z m32 -42 c8 -5 11 -10 5 -10 -5 0 -17 5 -25 10
-8 5 -10 10 -5 10 6 0 17 -5 25 -10z m295 0 c-45 -11 -123 -11 -130 0 -4 6 24
10 77 9 59 -1 75 -4 53 -9z m-118 -37 c40 -3 76 -10 79 -15 3 -4 -21 -6 -53
-3 -95 10 -122 15 -129 27 -5 8 -1 9 11 4 10 -3 51 -9 92 -13z"/>
<path d="M7477 4213 l-109 -4 7 -113 7 -113 -68 -6 c-38 -4 -89 -7 -113 -7
l-44 0 6 -67 c4 -38 7 -114 7 -169 l0 -102 108 6 109 5 7 -114 c3 -62 8 -115
11 -117 2 -2 66 4 142 14 l138 19 0 105 0 105 107 5 c58 3 109 7 111 10 4 4
-29 325 -33 325 0 0 -45 -1 -100 -3 l-100 -3 0 115 0 116 -42 -2 c-24 -1 -92
-4 -151 -5z m122 -39 c60 -50 49 -144 -22 -177 -69 -33 -157 16 -157 88 0 47
14 71 53 95 44 28 89 25 126 -6z m219 -250 c76 -53 60 -159 -29 -193 -75 -28
-168 59 -140 131 5 14 24 37 41 51 37 31 93 36 128 11z m-415 -34 c61 -68 13
-180 -78 -180 -59 0 -115 55 -115 113 0 32 35 76 74 93 43 19 86 10 119 -26z
m190 -211 c31 -14 57 -59 57 -99 0 -47 -55 -100 -104 -100 -77 0 -122 47 -117
124 0 10 16 33 35 52 37 37 82 45 129 23z"/>
<path d="M8082 3546 c-4 -16 -14 -32 -22 -34 -9 -3 -11 1 -7 11 3 8 3 17 0 20
-5 5 -73 -89 -73 -101 0 -3 -19 -30 -42 -61 -23 -31 -35 -50 -26 -44 8 7 39
47 69 89 53 73 79 81 43 12 -10 -18 -17 -36 -16 -40 1 -5 -2 -9 -8 -9 -5 -1
-14 -2 -19 -3 -17 -2 -25 -16 -9 -16 18 0 72 40 64 47 -3 3 5 14 17 25 12 11
16 16 8 12 -9 -4 -12 -2 -9 7 3 8 10 13 15 12 5 -1 10 8 10 20 1 12 8 26 16
32 8 5 19 19 25 30 9 18 7 21 -9 21 -13 0 -22 -10 -27 -30z"/>
<path d="M6965 3400 c-136 -31 -195 -165 -115 -262 80 -97 218 -91 288 12 32
46 28 139 -7 188 -36 51 -104 77 -166 62z"/>
<path d="M7695 3249 c-4 -6 -5 -12 -2 -15 2 -3 7 2 10 11 7 17 1 20 -8 4z"/>
<path d="M4475 2400 c3 -5 8 -10 11 -10 2 0 4 5 4 10 0 6 -5 10 -11 10 -5 0
-7 -4 -4 -10z"/>
<path d="M9166 4574 c-130 -47 -201 -180 -175 -327 9 -49 9 -73 1 -91 -6 -13
-46 -45 -92 -72 -44 -27 -110 -72 -145 -102 -135 -112 -264 -312 -321 -497
-27 -85 -28 -101 -29 -290 0 -224 8 -271 74 -425 129 -299 384 -514 716 -601
82 -22 110 -24 305 -24 201 1 221 3 314 28 415 112 716 444 776 856 17 112 7
311 -20 420 -25 102 -77 221 -138 316 -66 101 -219 250 -318 307 -111 65 -110
64 -97 156 15 102 3 162 -45 232 -29 42 -51 62 -102 88 -61 32 -70 34 -140 30
-60 -4 -87 -11 -135 -36 -33 -18 -69 -32 -80 -32 -11 0 -56 18 -99 40 -69 35
-87 40 -145 39 -36 0 -84 -7 -105 -15z m153 -35 c54 -11 123 -55 141 -90 l12
-21 -30 22 c-86 63 -234 29 -234 -54 0 -36 16 -52 73 -71 27 -9 51 -20 53 -24
3 -4 -18 -16 -45 -25 -28 -10 -57 -29 -66 -43 -15 -22 -15 -26 4 -51 44 -59
152 -67 214 -14 25 21 30 22 21 7 -43 -81 -170 -124 -270 -91 -87 29 -148 104
-159 196 -14 119 65 232 182 261 43 10 49 10 104 -2z m527 -29 c23 -11 49 -29
58 -39 16 -17 15 -18 -31 -6 -91 23 -173 -16 -173 -82 0 -27 6 -37 32 -53 18
-11 45 -22 60 -25 45 -10 41 -22 -11 -40 -85 -28 -105 -77 -48 -119 30 -22
117 -29 167 -13 l25 8 -25 -21 c-43 -35 -80 -51 -134 -57 -79 -8 -133 11 -190
68 -42 42 -47 52 -41 76 19 68 22 106 13 157 -12 68 3 95 76 137 65 37 156 40
222 9z m-191 -830 c123 -36 257 -147 313 -258 17 -35 39 -98 48 -140 15 -66
16 -89 6 -157 -31 -211 -179 -376 -392 -434 -375 -104 -740 244 -645 614 27
103 63 165 144 246 63 61 91 81 153 107 117 49 254 57 373 22z"/>
<path d="M4968 4263 c6 -2 18 -2 25 0 6 3 1 5 -13 5 -14 0 -19 -2 -12 -5z"/>
<path d="M5075 4240 c-3 -5 -18 -11 -33 -11 -20 -1 -22 -3 -7 -6 11 -2 38 3
60 11 35 13 37 15 13 15 -15 1 -30 -3 -33 -9z"/>
<path d="M5290 4240 c-16 -6 -6 -7 30 -3 30 3 57 7 59 9 8 7 -64 2 -89 -6z"/>
<path d="M5301 4215 c-24 -8 -29 -14 -18 -18 21 -8 89 12 82 24 -8 11 -20 10
-64 -6z"/>
<path d="M5205 4094 c-5 -1 -81 -10 -167 -20 l-158 -17 0 -98 0 -99 -54 0
c-29 0 -81 -3 -115 -6 l-61 -7 0 -131 c0 -72 4 -137 9 -145 7 -10 33 -12 118
-10 l110 4 7 -104 c3 -57 7 -106 9 -107 1 -2 78 0 170 3 l167 6 0 107 0 107
68 6 c37 4 91 7 121 7 l54 0 -6 68 c-4 37 -9 103 -13 146 l-7 79 -113 -7 c-90
-5 -114 -4 -115 6 -1 7 -4 58 -8 114 -3 59 -10 100 -16 98z m-45 -126 l0 -83
-48 -31 -48 -31 -36 26 c-37 27 -48 60 -48 146 l0 33 83 10 c45 5 85 10 90 11
4 0 7 -36 7 -81z m264 -146 c2 -4 7 -44 11 -90 l8 -82 -84 0 -84 1 -34 46 -33
45 35 35 c34 35 47 39 164 52 6 0 14 -2 17 -7z m-504 -64 c16 -22 30 -47 30
-53 0 -7 -15 -26 -34 -42 -27 -24 -46 -31 -101 -37 -37 -4 -69 -6 -70 -4 -6 6
-22 163 -18 171 2 4 40 7 84 7 l79 0 30 -42z m221 -163 c35 -25 37 -30 44 -97
4 -50 3 -73 -5 -78 -12 -8 -160 -24 -165 -18 -1 2 -5 35 -9 75 l-7 72 48 35
c26 20 50 36 52 36 3 0 21 -11 42 -25z"/>
<path d="M5652 3389 c-49 -32 -82 -95 -82 -157 0 -44 5 -57 32 -88 110 -125
310 -58 310 104 0 55 -39 115 -92 143 -48 26 -126 25 -168 -2z"/>
<path d="M4356 2440 c18 -68 90 -167 138 -192 21 -11 21 -11 2 11 -11 11 -15
21 -11 21 5 0 -6 16 -25 35 -18 19 -37 32 -42 29 -4 -3 -8 0 -8 6 0 6 -14 34
-31 63 -17 29 -27 41 -23 27z m84 -121 c0 -6 -4 -7 -10 -4 -5 3 -10 11 -10 16
0 6 5 7 10 4 6 -3 10 -11 10 -16z"/>
<path d="M240 2448 c0 -29 68 -141 80 -133 5 3 7 0 4 -8 -3 -8 9 -25 30 -40
l34 -27 -14 29 c-8 15 -31 48 -53 72 -21 24 -48 60 -60 79 -11 19 -21 32 -21
28z m78 -124 c-4 -3 -12 5 -18 18 -12 22 -12 22 6 6 10 -10 15 -20 12 -24z"/>
<path d="M2731 2395 c-86 -19 -245 -98 -356 -177 -181 -127 -435 -409 -527
-585 -59 -112 -78 -186 -78 -306 0 -339 169 -697 400 -849 85 -55 141 -71 250
-70 227 1 405 110 577 355 30 42 57 77 60 77 3 0 2 -53 -2 -117 -4 -75 -3
-128 4 -145 12 -31 57 -58 98 -58 38 0 91 34 98 62 11 46 22 643 13 676 -5 19
-29 53 -52 76 -60 60 -140 87 -281 93 -107 5 -397 -11 -429 -23 -24 -9 -46
-57 -46 -99 0 -27 8 -44 29 -66 35 -34 63 -36 295 -18 172 13 199 7 190 -43
-30 -160 -239 -450 -374 -518 -79 -40 -167 -56 -226 -41 -99 25 -149 65 -233
190 -113 166 -185 426 -160 583 18 122 112 270 284 447 176 182 335 294 488
345 60 20 149 21 223 1 49 -13 60 -13 90 0 63 26 81 117 31 162 -57 52 -242
76 -366 48z"/>
<path d="M7303 1795 c-160 -35 -316 -162 -394 -321 -24 -49 -57 -101 -74 -115
-26 -23 -30 -34 -30 -77 0 -38 5 -56 23 -74 14 -16 22 -37 22 -59 0 -99 75
-273 164 -380 66 -81 182 -161 272 -189 88 -27 210 -27 297 0 75 23 161 83
239 165 89 94 98 131 47 190 -26 29 -38 35 -71 35 -36 0 -47 -7 -121 -78 -93
-89 -111 -101 -184 -118 -169 -39 -367 113 -424 328 -7 26 -11 49 -8 52 2 2
63 -3 134 -11 175 -20 389 -13 466 15 72 26 116 55 156 104 45 55 57 106 44
182 -31 175 -162 306 -353 351 -76 18 -123 18 -205 0z m222 -225 c78 -38 143
-129 124 -177 -11 -31 -64 -44 -198 -50 -116 -6 -347 13 -357 28 -12 20 84
141 140 177 86 55 205 64 291 22z"/>
<path d="M5333 1706 c-64 -16 -151 -58 -207 -101 -39 -29 -45 -31 -67 -19 -41
23 -95 17 -130 -14 l-31 -28 1 -239 c2 -242 20 -524 45 -689 10 -71 18 -93 36
-108 47 -38 104 -35 146 7 20 20 24 34 24 82 0 32 -4 85 -9 118 -14 86 -30
330 -32 473 l-2 123 39 40 c51 53 174 135 225 151 35 10 45 9 75 -7 65 -35
142 -165 187 -315 32 -105 51 -199 72 -355 18 -132 23 -144 61 -174 33 -26 70
-27 111 -1 43 26 53 67 51 225 -2 193 33 384 90 488 22 42 106 117 117 105 60
-67 333 -641 356 -748 15 -70 33 -106 64 -126 34 -22 90 -11 128 27 28 28 29
33 22 86 -10 84 -44 178 -140 388 -184 405 -293 574 -382 591 -74 14 -186 -29
-253 -97 -48 -50 -118 -152 -126 -186 -8 -32 -19 -29 -35 9 -22 53 -104 171
-150 215 -78 74 -185 104 -286 79z"/>
<path d="M8188 1704 c-15 -8 -33 -24 -39 -35 -17 -33 -23 -316 -10 -504 16
-230 48 -517 66 -590 19 -74 58 -115 110 -115 47 0 78 16 99 51 17 29 17 33
-8 132 -25 97 -45 277 -62 553 l-7 110 80 42 c103 53 241 99 324 108 73 7 119
-4 181 -43 84 -52 183 -4 180 87 -1 37 -12 52 -69 91 -88 61 -216 86 -347 69
-76 -11 -223 -55 -308 -93 l-38 -17 0 60 c0 53 -3 64 -26 85 -31 29 -83 33
-126 9z"/>
<path d="M4398 1677 c-14 -13 -29 -33 -32 -45 -7 -21 -7 -21 -61 -2 -157 54
-419 53 -527 -1 -100 -51 -201 -201 -270 -400 -30 -88 -32 -103 -33 -234 0
-137 1 -142 32 -207 17 -37 50 -87 74 -112 133 -145 446 -183 722 -87 l57 20
0 -20 c0 -11 13 -34 29 -50 24 -24 38 -29 76 -29 37 0 52 5 74 27 l27 28 4
250 c3 138 5 374 5 525 0 244 -2 279 -18 307 -21 40 -45 53 -95 53 -27 0 -47
-7 -64 -23z m-238 -227 c36 -6 98 -26 139 -47 l74 -36 -6 -231 c-4 -127 -10
-244 -15 -261 -16 -61 -200 -128 -350 -127 -91 0 -202 23 -250 52 -106 65
-103 269 8 490 46 91 83 138 125 156 36 16 184 18 275 4z"/>
</g>
</svg>
